<?xml version="1.0" encoding="UTF-8" standalone="no"?>
<!-- Created with Inkscape (http://www.inkscape.org/) -->

<svg
   xmlns:dc="http://purl.org/dc/elements/1.1/"
   xmlns:cc="http://creativecommons.org/ns#"
   xmlns:rdf="http://www.w3.org/1999/02/22-rdf-syntax-ns#"
   xmlns:svg="http://www.w3.org/2000/svg"
   xmlns="http://www.w3.org/2000/svg"
   xmlns:sodipodi="http://sodipodi.sourceforge.net/DTD/sodipodi-0.dtd"
   xmlns:inkscape="http://www.inkscape.org/namespaces/inkscape"
   width="74.173424mm"
   height="116.85764mm"
   viewBox="0 0 74.173424 116.85764"
   version="1.1"
   id="svg8"
   inkscape:version="0.92.3 (2405546, 2018-03-11)"
   sodipodi:docname="sitelogo.svg"
   inkscape:export-filename="C:\Users\George\Desktop\Workspace\Web\MyBlog\images\sitelogo280.png"
   inkscape:export-xdpi="96"
   inkscape:export-ydpi="96">
  <defs
     id="defs2" />
  <sodipodi:namedview
     id="base"
     pagecolor="#ffffff"
     bordercolor="#666666"
     borderopacity="1.0"
     inkscape:pageopacity="0.0"
     inkscape:pageshadow="2"
     inkscape:zoom="0.98994949"
     inkscape:cx="295.70956"
     inkscape:cy="84.486744"
     inkscape:document-units="mm"
     inkscape:current-layer="layer1"
     showgrid="false"
     inkscape:window-width="943"
     inkscape:window-height="818"
     inkscape:window-x="162"
     inkscape:window-y="91"
     inkscape:window-maximized="0" />
  <metadata
     id="metadata5">
    <rdf:RDF>
      <cc:Work
         rdf:about="">
        <dc:format>image/svg+xml</dc:format>
        <dc:type
           rdf:resource="http://purl.org/dc/dcmitype/StillImage" />
        <dc:title />
      </cc:Work>
    </rdf:RDF>
  </metadata>
  <g
     inkscape:label="Layer 1"
     inkscape:groupmode="layer"
     id="layer1"
     transform="translate(0.08203539,-0.15379537)">
    <flowRoot
       xml:space="preserve"
       id="flowRoot18"
       style="font-style:normal;font-weight:normal;font-size:40px;line-height:1.25;font-family:sans-serif;letter-spacing:0px;word-spacing:0px;fill:#000000;fill-opacity:1;stroke:none"><flowRegion
         id="flowRegion20"><rect
           id="rect22"
           width="82.85714"
           height="45.714287"
           x="320"
           y="71.09111" /></flowRegion><flowPara
         id="flowPara24" /></flowRoot>    <path
       style="fill:#000080;stroke-width:0.26458332"
       id="path70"
       d="m 43.236581,15.874241 c -0.247756,-0.51359 -0.49669,-1.02704 -0.735645,-1.54496 -0.388406,-0.79298 -0.806172,-1.57069 -1.204347,-2.35866 -0.472305,-0.88482 -0.959913,-1.76119 -1.471726,-2.6237698 -0.564377,-0.98091 -1.226894,-1.89522 -1.947857,-2.7655 -0.748001,-0.89444 -1.63136,-1.65234 -2.610731,-2.27969 -1.117063,-0.71336 -2.365685,-1.15526 -3.625368,-1.53915 -1.398056,-0.41086 -2.846541,-0.56061 -4.297897,-0.58397 -4.401056,0.0949 2.265098,-0.0503 9.239924,-0.14152 0.28266,-0.004 -0.565123,0.0197 -0.847174,0.0386 -0.870416,0.0583 -1.729849,0.18403 -2.591536,0.31478 -1.849157,0.26657 -3.633332,0.82282 -5.389311,1.44346 -1.855616,0.65767 -3.608533,1.55293 -5.299194,2.55361 -1.704594,1.00186 -3.191118,2.293 -4.575101,3.6931198 -1.383498,1.42368 -2.552663,3.02676 -3.641444,4.68079 -0.971482,1.47784 -1.724356,3.07398 -2.328458,4.73182 -0.482375,1.36588 -0.745662,2.78763 -0.890506,4.22461 -0.114649,1.212302 -0.0104,2.421282 0.193215,3.616782 0.175758,1.11613 0.634286,2.12864 1.19189,3.09937 0.645731,1.09704 1.517105,2.02615 2.380805,2.95084 0.941652,0.97915 1.957401,1.88336 2.969115,2.78873 1.062455,0.91458 2.127115,1.82657 3.185485,2.74589 1.170853,0.99997 2.242399,2.10584 3.29007,3.23195 1.130115,1.23101 2.169967,2.54045 3.135394,3.90343 1.050936,1.48831 1.866935,3.11596 2.640106,4.75987 0.777441,1.73244 1.391822,3.53152 1.917707,5.35428 0.501743,1.75672 0.742694,3.56632 0.889477,5.38244 0.142742,1.70333 0.07734,3.41094 -0.02098,5.11409 -0.115019,1.8302 -0.267885,3.6579 -0.433882,5.48411 -0.193141,2.06975 -0.429355,4.13513 -0.644962,6.2026 -0.03551,0.3506 -0.07102,0.70121 -0.106531,1.05181 0,0 -10.885189,0.0609 -10.885189,0.0609 v 0 c 0.0357,-0.3513 0.0714,-0.70261 0.107093,-1.05391 0.211164,-2.06049 0.440785,-4.11953 0.610103,-6.18397 0.148444,-1.81548 0.272986,-3.63271 0.369961,-5.45168 0.09331,-1.65359 0.179287,-3.31129 0.04265,-4.96572 -0.133125,-1.74261 -0.376306,-3.47649 -0.863129,-5.15953 -0.516167,-1.76515 -1.114562,-3.50988 -1.900528,-5.1753 -0.773562,-1.58434 -1.613593,-3.13847 -2.665362,-4.55915 -0.975643,-1.31038 -2.009251,-2.5784 -3.1423,-3.75705 -1.057688,-1.08823 -2.144062,-2.14715 -3.3098433,-3.12066 -1.072341,-0.91855 -2.153886,-1.82676 -3.2068367,-2.76762 -1.024858,-0.92935 -2.0426927,-1.86952 -2.9780147,-2.89043 -0.907477,-0.99583 -1.787644,-2.02577 -2.435466,-3.21532 -0.57934998,-1.09633 -1.03721298,-2.24241 -1.21653898,-3.47818 -0.199009,-1.29341 -0.282135,-2.60043 -0.155597,-3.906972 0.156511,-1.52903 0.443815,-3.0398 0.954639,-4.49385 0.62228098,-1.74211 1.39951598,-3.42182 2.39572498,-4.98499 1.110038,-1.70834 2.2783997,-3.38402 3.6670537,-4.8814298 1.3823467,-1.48732 2.8575347,-2.89044 4.588764,-3.97146 1.686074,-1.07603 3.442648,-2.03874 5.308458,-2.77022 1.751253,-0.67211 3.526954,-1.30538 5.375145,-1.65576 5.249545,-0.91839 10.579306,-1.0408 15.924215,-0.67911 1.489067,0.12807 2.967461,0.36317 4.379378,0.87329 1.30066,0.47154 2.571538,1.03328 3.694612,1.85453 0.988071,0.75566 1.901796,1.59999 2.661709,2.59028 0.718968,0.9316 1.382712,1.90264 1.978342,2.91827 0.52246,0.88342 1.028737,1.7767498 1.502878,2.6871698 0.416555,0.79169 0.84023,1.57971 1.249111,2.37541 0.271561,0.51444 0.540759,1.02983 0.832396,1.53324 0,0 -11.253968,0.69947 -11.253968,0.69947 z"
       inkscape:connector-curvature="0" />
    <path
       style="fill:#000080;stroke-width:0.26458332"
       id="path74"
       d="m 30.365684,87.58315 c -0.02265,0.505 -0.08042,1.00769 -0.12617,1.51097 -0.05661,0.68525 -0.150479,1.36674 -0.231312,2.04941 -0.114575,0.84576 -0.242173,1.689643 -0.356092,2.535513 -0.100668,0.80834 -0.225612,1.6134 -0.342886,2.41943 0,0 -11.121689,0.0188 -11.121689,0.0188 v 0 c 0.109574,-0.80145 0.228875,-1.60176 0.320349,-2.40554 0.102603,-0.83895 0.216467,-1.676393 0.323234,-2.514803 0.06785,-0.6708 0.149939,-1.34074 0.191608,-2.01379 0.03085,-0.47435 0.06874,-0.94835 0.09039,-1.42322 0,0 11.252568,-0.17677 11.252568,-0.17677 z"
       inkscape:connector-curvature="0" />
    <path
       style="fill:#000080;stroke-width:0.26458332"
       id="path78"
       d="m 67.893408,53.256463 c 0.0508,0.4481 0.09581,0.89672 0.134257,1.34604 0.05815,0.57536 0.128591,1.15013 0.236601,1.71838 0.162264,0.72565 0.323401,1.45132 0.467821,2.18077 0.142081,0.72505 0.255889,1.45509 0.363895,2.18584 0,0 -10.637973,3.81605 -10.637973,3.81605 v 0 c -0.103597,-0.71278 -0.212622,-1.42494 -0.349483,-2.13224 -0.142467,-0.72723 -0.300876,-1.45094 -0.471299,-2.17214 -0.130689,-0.60817 -0.207875,-1.22422 -0.286094,-1.84106 -0.03631,-0.44118 -0.07652,-0.8821 -0.132609,-1.32128 0,0 10.674884,-3.78036 10.674884,-3.78036 z"
       inkscape:connector-curvature="0" />
    <path
       style="fill:#000080;stroke-width:0.26458332"
       id="path80"
       d="m 68.469948,72.661863 c 0.540745,0.002 1.05256,0.19348 1.538079,0.4142 0.6003,0.28973 1.094988,0.73051 1.550977,1.20808 0.514768,0.55449 0.903576,1.2009 1.252566,1.86757 0.401762,0.78754 0.66893,1.63325 0.902198,2.48319 0.257291,0.92303 0.348448,1.87627 0.377015,2.83044 0.0092,1.0513 -0.08696,2.100077 -0.217654,3.142107 -0.159967,1.15633 -0.452104,2.28782 -0.770107,3.40909 -0.355949,1.23682 -0.772978,2.45427 -1.224627,3.65903 -0.500983,1.317013 -1.093591,2.594373 -1.738362,3.846253 -0.673614,1.28049 -1.443387,2.506972 -2.252673,3.705202 -0.815817,1.208845 -1.72991,2.345215 -2.655004,3.470905 -0.938848,1.14292 -1.945979,2.2266 -2.965098,3.29764 -1.005875,1.06298 -2.069381,2.06759 -3.162951,3.03922 -1.052134,0.95752 -2.170689,1.83549 -3.307416,2.68914 -1.124588,0.82506 -2.269577,1.62168 -3.43939,2.38119 -0.194948,0.12173 -0.389898,0.24346 -0.584846,0.36518 0,0 -10.993345,2.54113 -10.993345,2.54113 v 0 c 0.19657,-0.11495 0.393142,-0.22991 0.589712,-0.34487 1.183156,-0.72299 2.330495,-1.49817 3.459165,-2.30346 1.143381,-0.82048 2.274504,-1.66117 3.33308,-2.59012 1.087213,-0.95658 2.1828,-1.90424 3.186237,-2.95094 1.020427,-1.04987 2.036215,-2.10648 2.985532,-3.22177 0.92982,-1.09364 1.846921,-2.20074 2.679623,-3.37105 0.818735,-1.15588 1.597044,-2.339875 2.290292,-3.576135 0.654648,-1.20863 1.264481,-2.438272 1.772475,-3.716922 0.462915,-1.1715 0.883018,-2.3585 1.246989,-3.564743 0.316699,-1.07233 0.627124,-2.14849 0.814682,-3.25262 0.150407,-0.98574 0.247726,-1.98093 0.267388,-2.97836 0.0038,-0.86268 -0.05909,-1.72726 -0.284827,-2.563687 -0.20342,-0.76929 -0.442772,-1.53488 -0.813925,-2.24195 -0.305898,-0.55981 -0.649202,-1.10183 -1.121812,-1.53818 -0.394541,-0.34263 -0.823637,-0.63384 -1.342493,-0.74923 -0.445225,-0.0853 -0.882891,-0.0955 -1.327563,0.008 0,0 9.956083,-5.39313 9.956083,-5.39313 z"
       inkscape:connector-curvature="0" />
  </g>
</svg>
